<?xml version="1.0" encoding="UTF-8"?>
<svg id="Layer_2" data-name="Layer 2" xmlns="http://www.w3.org/2000/svg" viewBox="0 0 173.23 35.43">
  <defs>
    <style>
      .cls-1 {
        fill: #962e38;
      }

      .cls-1, .cls-2, .cls-3 {
        stroke-width: 0px;
      }

      .cls-2 {
        fill: #962829;
      }

      .cls-3 {
        fill: #ea7b52;
      }

      .cls-4 {
        fill: none;
        stroke: #472732;
        stroke-miterlimit: 10;
      }
    </style>
  </defs>
  <g id="Layer_2-2" data-name="Layer 2">
    <g>
      <path class="cls-1" d="m40.7.34v2.38h-2.51l5.74,16.24h2.38v2.67h-8.34v-2.67h2.63l-1.57-4.83h-7.65l-1.66,4.83h2.6v2.67h-8.4v-2.67h2.57l5.83-16.24h-2.51V.34h10.88Zm-5.58,2.38l-2.95,8.94h6.05l-2.82-8.94h-.28Z"/>
      <path class="cls-1" d="m65.32,14.24l-.07.28c-1.25,4.7-5.21,7.46-10.32,7.46-6.3,0-10.66-4.52-10.66-10.97S48.47,0,54.87,0c3.76,0,6.24,1.66,7.02,2.26V.34h2.76v6.84h-2.76c-1.16-2.57-3.83-4.36-6.87-4.36-4.23,0-7.24,3.39-7.24,8.09s3.2,8.18,7.37,8.18c2.53,0,5.53-1.48,6.9-4.86h3.27Z"/>
      <path class="cls-1" d="m153.21,14.24l-.07.28c-1.25,4.7-5.21,7.46-10.32,7.46-6.3,0-10.66-4.52-10.66-10.97s4.2-11.01,10.6-11.01c3.76,0,6.24,1.66,7.02,2.26V.34h2.76v6.84h-2.76c-1.16-2.57-3.83-4.36-6.87-4.36-4.23,0-7.24,3.39-7.24,8.09s3.2,8.18,7.37,8.18c2.53,0,5.53-1.48,6.9-4.86h3.27Z"/>
      <path class="cls-1" d="m79.98,0c1.63,0,3.26.53,4.77,1.66V.25h2.63v6.43h-2.63v-1.47c-1.16-1.66-2.54-2.48-4.52-2.48-2.19,0-3.57,1.13-3.57,2.73,0,2.26,2.13,2.73,4.95,3.42,2.41.6,4.33,1.25,5.49,2.76.82,1.07,1.35,2.51,1.35,4.08,0,3.61-2.88,6.27-6.74,6.27-2.88,0-4.55-1.5-5.24-2.1v1.76h-2.63v-7.71h2.63v1.88c1.35,2.26,2.88,3.51,4.95,3.51s3.76-1.54,3.76-3.57c0-2.38-2.16-2.95-4.61-3.57-3.42-.88-6.8-1.98-6.8-6.33,0-3.92,3.01-5.83,6.21-5.83Z"/>
      <path class="cls-1" d="m107.48.34c4.36,0,6.96,2.45,6.96,6.58,0,1.88-.72,3.95-2.19,5.11-1.25.97-3.04,1.44-5.36,1.44h-3.14v5.49h2.79v2.67h-8.65v-2.67h2.67V3.01h-2.67V.34h9.6Zm-.91,10.57c3.1,0,4.61-1.25,4.61-4.01s-1.76-3.89-3.67-3.89h-3.76v7.9h2.82Z"/>
      <path class="cls-1" d="m128.14.34v2.38h-2.51l5.74,16.24h2.38v2.67h-8.34v-2.67h2.63l-1.57-4.83h-7.65l-1.66,4.83h2.6v2.67h-8.4v-2.67h2.57l5.83-16.24h-2.51V.34h10.88Zm-5.58,2.38l-2.95,8.94h6.05l-2.82-8.94h-.28Z"/>
      <path class="cls-1" d="m162.92.34v2.67h-2.76v15.96h2.45v2.67h-8.31v-2.67h2.67V3.01h-2.67V.34h8.62Zm10.1,0v2.67l-2.26.03-6.52,7.34,6.71,8.59h2.29v2.67h-8.65v-2.67h2.29l-6.55-8.59,6.8-7.37h-2.45V.34h8.34Z"/>
      <polygon class="cls-1" points="25.93 3.01 25.93 .34 18.5 .34 12.89 14.93 7.34 .34 0 .34 0 3.01 2.6 3.01 2.6 18.97 0 18.97 0 21.64 7.53 21.64 7.53 18.97 5.24 18.97 5.24 3.01 5.3 3.01 11.48 19.24 14.11 19.24 20.35 2.98 20.41 2.98 20.41 18.97 18.12 18.97 18.12 21.64 25.93 21.64 25.93 18.97 23.36 18.97 23.36 3.01 25.93 3.01"/>
      <polygon class="cls-1" points="70.49 6.2 67.22 6.2 69.18 .34 72.44 .34 70.49 6.2"/>
      <line class="cls-4" y1="25.8" x2="173.23" y2="25.8"/>
      <g>
        <path class="cls-3" d="m.28,35.33v-4.77h1.69c1.3,0,2.32.86,2.32,2.4s-1.04,2.38-2.33,2.38H.28Zm1.66-.74c.83,0,1.51-.53,1.51-1.64s-.68-1.66-1.51-1.66h-.85v3.29h.85Z"/>
        <path class="cls-3" d="m9.77,34.13h-2.02l-.44,1.2h-.85l1.86-4.77h.94l1.86,4.77h-.88l-.45-1.2Zm-1.74-.75h1.45l-.73-1.95-.73,1.95Z"/>
        <path class="cls-3" d="m12.76,30.56h.96l1.14,2,1.15-2h.91l-1.68,2.75v2.02h-.81v-2.02l-1.67-2.75Z"/>
        <path class="cls-3" d="m18.98,32.95c0-1.55,1.16-2.49,2.4-2.49s1.93.71,2.15,1.55l-.76.26c-.14-.58-.59-1.04-1.39-1.04s-1.57.57-1.57,1.73.77,1.71,1.58,1.71,1.26-.51,1.42-1.05l.74.24c-.22.81-.94,1.58-2.16,1.58-1.29,0-2.41-.93-2.41-2.48Z"/>
        <path class="cls-3" d="m29.03,34.13h-2.02l-.44,1.2h-.85l1.86-4.77h.94l1.86,4.77h-.88l-.45-1.2Zm-1.74-.75h1.45l-.73-1.95-.73,1.95Z"/>
        <path class="cls-3" d="m34.43,33.45h-.59v1.88h-.81v-4.77h1.83c.92,0,1.49.64,1.49,1.45,0,.68-.41,1.2-1.08,1.36l1.08,1.96h-.92l-1-1.88Zm.28-.71c.5,0,.82-.29.82-.73s-.32-.73-.82-.73h-.87v1.46h.87Z"/>
        <path class="cls-3" d="m39.23,35.33v-4.77h2.95v.75h-2.14v1.26h1.94v.73h-1.94v1.27h2.14v.75h-2.95Z"/>
      </g>
      <g>
        <path class="cls-3" d="m54.13,30.56c.92,0,1.45.54,1.45,1.29,0,.5-.3.88-.71,1.03.5.13.85.57.85,1.14,0,.77-.59,1.32-1.48,1.32h-1.76v-4.77h1.64Zm-.11,2.02c.47,0,.75-.27.75-.67s-.28-.67-.77-.67h-.71v1.33h.73Zm.09,2.07c.48,0,.8-.26.8-.69s-.28-.7-.77-.7h-.85v1.39h.82Z"/>
        <path class="cls-3" d="m60.73,30.46c1.25,0,2.43.92,2.43,2.48s-1.18,2.49-2.43,2.49-2.42-.92-2.42-2.49,1.17-2.48,2.42-2.48Zm0,4.21c.81,0,1.6-.57,1.6-1.72s-.79-1.72-1.6-1.72-1.59.57-1.59,1.72.79,1.72,1.59,1.72Z"/>
        <path class="cls-3" d="m68.64,34.13h-2.02l-.44,1.2h-.85l1.86-4.77h.94l1.86,4.77h-.88l-.45-1.2Zm-1.74-.75h1.45l-.73-1.95-.73,1.95Z"/>
        <path class="cls-3" d="m74.04,33.45h-.59v1.88h-.81v-4.77h1.83c.92,0,1.49.64,1.49,1.45,0,.68-.41,1.2-1.08,1.36l1.08,1.96h-.92l-1-1.88Zm.28-.71c.5,0,.82-.29.82-.73s-.32-.73-.82-.73h-.87v1.46h.87Z"/>
        <path class="cls-3" d="m78.84,35.33v-4.77h1.69c1.3,0,2.32.86,2.32,2.4s-1.04,2.38-2.33,2.38h-1.68Zm1.66-.74c.83,0,1.51-.53,1.51-1.64s-.68-1.66-1.51-1.66h-.85v3.29h.85Z"/>
        <path class="cls-3" d="m85.72,35.33v-4.77h.82v4.77h-.82Z"/>
        <path class="cls-3" d="m92.87,35.33l-2.36-3.61v3.61h-.81v-4.77h1.03l2.17,3.38v-3.38h.81v4.77h-.84Z"/>
        <path class="cls-3" d="m100.45,35.33l-.06-.61c-.21.35-.7.71-1.46.71-1.24,0-2.35-.92-2.35-2.49s1.16-2.48,2.4-2.48c1.16,0,1.9.67,2.15,1.45l-.76.29c-.16-.54-.63-1-1.39-1s-1.58.55-1.58,1.74.75,1.75,1.57,1.75c.96,0,1.33-.66,1.37-1.07h-1.57v-.71h2.33v2.42h-.65Z"/>
      </g>
      <g>
        <path class="cls-3" d="m114.77,34.13h-2.02l-.44,1.2h-.85l1.86-4.77h.94l1.86,4.77h-.88l-.45-1.2Zm-1.74-.75h1.45l-.73-1.95-.73,1.95Z"/>
        <path class="cls-3" d="m118.76,35.33v-4.77h1.69c1.3,0,2.32.86,2.32,2.4s-1.04,2.38-2.33,2.38h-1.68Zm1.66-.74c.83,0,1.51-.53,1.51-1.64s-.68-1.66-1.51-1.66h-.85v3.29h.85Z"/>
        <path class="cls-3" d="m128.51,30.56h.85l-1.8,4.77h-.82l-1.78-4.77h.88l1.33,3.71,1.34-3.71Z"/>
        <path class="cls-3" d="m132.03,35.33v-4.77h2.95v.75h-2.14v1.26h1.94v.73h-1.94v1.27h2.14v.75h-2.95Z"/>
        <path class="cls-3" d="m141.13,35.33l-2.35-3.61v3.61h-.81v-4.77h1.03l2.17,3.38v-3.38h.81v4.77h-.84Z"/>
        <path class="cls-3" d="m147,31.32v4.01h-.81v-4.01h-1.55v-.76h3.91v.76h-1.55Z"/>
        <path class="cls-3" d="m151.2,33.67v-3.11h.8v3.06c0,.67.37,1.04.98,1.04s.98-.37.98-1.04v-3.06h.81v3.11c0,1.15-.78,1.76-1.78,1.76s-1.78-.61-1.78-1.76Z"/>
        <path class="cls-3" d="m159.27,33.45h-.59v1.88h-.81v-4.77h1.83c.92,0,1.49.64,1.49,1.45,0,.68-.41,1.2-1.08,1.36l1.08,1.96h-.92l-1-1.88Zm.28-.71c.5,0,.82-.29.82-.73s-.32-.73-.82-.73h-.87v1.46h.87Z"/>
        <path class="cls-3" d="m164.07,35.33v-4.77h2.95v.75h-2.14v1.26h1.94v.73h-1.94v1.27h2.14v.75h-2.95Z"/>
        <path class="cls-3" d="m172.42,31.91c-.05-.3-.3-.73-.94-.73-.48,0-.82.32-.82.69,0,.3.19.53.56.61l.69.14c.84.17,1.29.7,1.29,1.37,0,.74-.6,1.45-1.69,1.45-1.21,0-1.77-.78-1.84-1.47l.75-.22c.05.5.4.96,1.09.96.57,0,.87-.29.87-.66,0-.31-.23-.56-.64-.65l-.67-.14c-.73-.15-1.21-.63-1.21-1.34,0-.8.73-1.46,1.62-1.46,1.12,0,1.56.69,1.67,1.22l-.73.23Z"/>
      </g>
      <rect class="cls-2" x="46.28" y="31.95" width="2.1" height="2.1"/>
      <rect class="cls-2" x="105.25" y="31.95" width="2.1" height="2.1"/>
    </g>
  </g>
</svg>